<svg xmlns="http://www.w3.org/2000/svg" version="1.1" xmlns:xlink="http://www.w3.org/1999/xlink" xmlns:svgjs="http://svgjs.dev/svgjs" width="1000" height="999" viewBox="0 0 1000 999"><g transform="matrix(1,0,0,1,-0.215743440233382,-0.21552769679306039)"><svg viewBox="0 0 343 343" data-background-color="#ffffff" preserveAspectRatio="xMidYMid meet" height="999" width="1000" xmlns="http://www.w3.org/2000/svg" xmlns:xlink="http://www.w3.org/1999/xlink"><g id="tight-bounds" transform="matrix(1,0,0,1,0.0740000000000407,0.07400000000001228)"><svg viewBox="0 0 342.85155851775386 342.85155851775386" height="342.85155851775386" width="342.85155851775386"><g><svg></svg></g><g><svg viewBox="0 0 342.85155851775386 342.85155851775386" height="342.85155851775386" width="342.85155851775386"><g><path d="M0 171.426c0-94.676 76.75-171.426 171.426-171.426 94.676 0 171.426 76.75 171.426 171.426 0 94.676-76.75 171.426-171.426 171.426-94.676 0-171.426-76.75-171.426-171.426zM171.426 330.576c87.896 0 159.15-71.254 159.15-159.15 0-87.896-71.254-159.15-159.15-159.15-87.896 0-159.15 71.254-159.15 159.15 0 87.896 71.254 159.15 159.15 159.15z" data-fill-palette-color="tertiary" fill="#915eff" stroke="transparent"></path><ellipse rx="164.56874808852186" ry="164.56874808852186" cx="171.42577925887693" cy="171.42577925887693" fill="#915eff" stroke="transparent" stroke-width="0" fill-opacity="1" data-fill-palette-color="tertiary"></ellipse></g><g transform="matrix(1,0,0,1,64.84655864529837,103.36435117217316)"><svg viewBox="0 0 213.1584412271571 136.12285617340754" height="136.12285617340754" width="213.1584412271571"><g><svg viewBox="0 0 213.1584412271571 136.12285617340754" height="136.12285617340754" width="213.1584412271571"><g><svg viewBox="0 0 213.1584412271571 136.12285617340754" height="136.12285617340754" width="213.1584412271571"><g><svg viewBox="0 0 213.1584412271571 136.12285617340754" height="136.12285617340754" width="213.1584412271571"><g id="textblocktransform"><svg viewBox="0 0 213.1584412271571 136.12285617340754" height="136.12285617340754" width="213.1584412271571" id="textblock"><g><svg viewBox="0 0 213.1584412271571 136.12285617340754" height="136.12285617340754" width="213.1584412271571"><g transform="matrix(1,0,0,1,0,0)"><svg width="213.1584412271571" viewBox="1.05 -35.94 58.57 37.4" height="136.12285617340754" data-palette-color="#ffffff"><path d="M19.9-35.94L32.2-34.96 20.43-18.7 30.35-1.42 19.02 0.59 11.6-9.96 11.21 1.07 1.05 1.46 1.83-35.94 13.21-35.3 12.33-24.27 19.9-35.94ZM59.62-19.38L59.62-19.38Q59.62-15.97 58.74-13.22 57.86-10.47 56.28-8.34 54.71-6.2 52.54-4.66 50.36-3.13 47.78-2.14 45.19-1.15 42.27-0.67 39.35-0.2 36.28-0.2L36.28-0.2Q35.13-0.2 34.03-0.26 32.93-0.32 31.78-0.44L31.78-0.44 32.47-33.2Q35.15-34.06 38-34.41 40.84-34.77 43.65-34.77L43.65-34.77Q47.14-34.77 50.07-33.72 53-32.67 55.12-30.69 57.25-28.71 58.43-25.85 59.62-23 59.62-19.38ZM49.61-17.48L49.61-17.82Q49.63-19.14 49.33-20.36 49.02-21.58 48.33-22.52 47.63-23.46 46.56-24.04 45.48-24.61 43.99-24.66L43.99-24.66 43.02-9.52Q44.48-9.74 45.68-10.49 46.87-11.23 47.74-12.32 48.61-13.4 49.08-14.73 49.56-16.06 49.61-17.48L49.61-17.48Z" opacity="1" transform="matrix(1,0,0,1,0,0)" fill="#ffffff" class="undefined-text-0" data-fill-palette-color="quaternary" id="text-0"></path></svg></g></svg></g></svg></g></svg></g><g></g></svg></g></svg></g></svg></g></svg></g><defs></defs></svg><rect width="342.85155851775386" height="342.85155851775386" fill="none" stroke="none" visibility="hidden"></rect></g></svg></g></svg>